<svg version="1.1" viewBox="0.0 0.0 512.0 512.0" fill="none" stroke="none" stroke-linecap="square" stroke-miterlimit="10" xmlns:xlink="http://www.w3.org/1999/xlink" xmlns="http://www.w3.org/2000/svg"><clipPath id="p.0"><path d="m0 0l512.0 0l0 512.0l-512.0 0l0 -512.0z" clip-rule="nonzero"/></clipPath><g clip-path="url(#p.0)"><path fill="#ffffff" d="m0 0l512.0 0l0 512.0l-512.0 0z" fill-rule="evenodd"/><path fill="#073763" d="m179.70622 230.21883l-14.576126 8.438858c4.6029816 5.114456 9.205978 12.274704 13.80896 21.480743l16.110474 -8.438873c-4.602997 -8.183136 -9.7174225 -15.343384 -15.3433075 -21.480728zm44.495575 -2.3015137l-14.576141 8.438858c5.114441 6.6488037 9.7174225 14.576218 13.808975 23.782257l16.110458 -8.438873c-2.5572052 -6.1373444 -7.671646 -14.064758 -15.343292 -23.782242zm46.029892 -0.76716614l-16.110458 33.755432l-111.23892 0l0 44.49582l15.343292 0l0 -29.919586l135.02104 0l0 27.618073l15.343292 0l0 -42.194305l-37.591064 0l13.041779 -21.480728c3.5801086 -0.5114441 4.34729 -2.0457764 2.3015137 -4.603012l-16.110474 -7.671692zm-0.7671509 62.140686l-2.3015137 2.3015137l-94.36128 0l0 12.274719l81.31949 0l-22.247787 13.04187l-13.041809 -0.7671814l0 19.946411l-79.78516 0l0 14.576202l79.78516 0l0 31.453918c0 2.045807 -1.0228882 3.068695 -3.0686493 3.068695l-17.644806 0l3.0686646 16.877716l20.713455 0c8.18309 0 12.274643 -4.0915833 12.274643 -12.274719l0 -39.12561l79.78514 0l0 -14.576202l-79.78514 0l0 -7.671692c14.320404 -6.1373596 29.152267 -14.064789 44.49556 -23.782257c4.0915527 0 5.3701477 -1.0228882 3.835846 -3.0686646l-13.041809 -12.274719z" fill-rule="evenodd"/><path fill="#f50000" fill-opacity="0.5849" d="m101.48294 318.55368c0 29.7435 12.493782 55.769043 37.48134 78.07666c24.987564 22.307587 54.139725 33.461395 87.45648 33.461395c33.316757 0 62.468918 -11.153809 87.45647 -33.461395c24.98758 -22.307617 37.481354 -48.33316 37.481354 -78.07666l-249.87564 0z" fill-rule="evenodd"/><path stroke="#990000" stroke-width="7.808398950131234" stroke-linejoin="round" stroke-linecap="butt" d="m101.48294 318.55368c0 29.7435 12.493782 55.769043 37.48134 78.07666c24.987564 22.307587 54.139725 33.461395 87.45648 33.461395c33.316757 0 62.468918 -11.153809 87.45647 -33.461395c24.98758 -22.307617 37.481354 -48.33316 37.481354 -78.07666l-249.87564 0z" fill-rule="evenodd"/><path fill="#d0d8e2" fill-opacity="0.717" d="m315.37653 178.88678c-15.948334 -27.623367 -40.723114 -45.546875 -74.32428 -53.770546c-33.60118 -8.223671 -64.8284 -4.006279 -93.68164 12.652184c-28.853233 16.658463 -48.119186 41.593384 -57.79786 74.80475c-9.678673 33.21138 -6.5438385 63.62874 9.404495 91.25209l216.39929 -124.93848z" fill-rule="evenodd"/><path stroke="#c2c9d1" stroke-width="7.808398950131234" stroke-linejoin="round" stroke-linecap="butt" d="m315.37653 178.88678c-15.948334 -27.623367 -40.723114 -45.546875 -74.32428 -53.770546c-33.60118 -8.223671 -64.8284 -4.006279 -93.68164 12.652184c-28.853233 16.658463 -48.119186 41.593384 -57.79786 74.80475c-9.678673 33.21138 -6.5438385 63.62874 9.404495 91.25209l216.39929 -124.93848z" fill-rule="evenodd"/><path fill="#ffd966" d="m394.47192 115.31131l15.001984 9.918213E-5l4.6357727 -14.280174l4.6357727 14.280174l15.001984 -9.918213E-5l-12.136932 8.825539l4.6359863 14.280113l-12.13681 -8.825699l-12.13681 8.825699l4.6359863 -14.280113z" fill-rule="evenodd"/><path stroke="#f1c232" stroke-width="1.952755905511811" stroke-linejoin="round" stroke-linecap="butt" d="m394.47192 115.31131l15.001984 9.918213E-5l4.6357727 -14.280174l4.6357727 14.280174l15.001984 -9.918213E-5l-12.136932 8.825539l4.6359863 14.280113l-12.13681 -8.825699l-12.13681 8.825699l4.6359863 -14.280113z" fill-rule="evenodd"/><path fill="#ffd966" d="m342.63052 188.92635c-9.504211 -14.826111 -9.655762 -33.79106 -0.38964844 -48.76715c9.266083 -14.976082 26.304962 -23.30487 43.814392 -21.416939l-0.96698 8.968132c-14.057617 -1.5157471 -27.737457 5.171097 -35.17685 17.194809c-7.4393616 12.023697 -7.317688 27.249893 0.3128662 39.153183z" fill-rule="evenodd"/><path stroke="#f1c232" stroke-width="1.952755905511811" stroke-linejoin="round" stroke-linecap="butt" d="m342.63052 188.92635c-9.504211 -14.826111 -9.655762 -33.79106 -0.38964844 -48.76715c9.266083 -14.976082 26.304962 -23.30487 43.814392 -21.416939l-0.96698 8.968132c-14.057617 -1.5157471 -27.737457 5.171097 -35.17685 17.194809c-7.4393616 12.023697 -7.317688 27.249893 0.3128662 39.153183z" fill-rule="evenodd"/><path fill="#ffd966" d="m424.3384 263.6466l15.001984 9.1552734E-5l4.6357727 -14.280167l4.6357727 14.280167l15.001984 -9.1552734E-5l-12.136902 8.825531l4.635956 14.280121l-12.13681 -8.825684l-12.13678 8.825684l4.635956 -14.280121z" fill-rule="evenodd"/><path stroke="#f1c232" stroke-width="1.952755905511811" stroke-linejoin="round" stroke-linecap="butt" d="m424.3384 263.6466l15.001984 9.1552734E-5l4.6357727 -14.280167l4.6357727 14.280167l15.001984 -9.1552734E-5l-12.136902 8.825531l4.635956 14.280121l-12.13681 -8.825684l-12.13678 8.825684l4.635956 -14.280121z" fill-rule="evenodd"/><path fill="#ffd966" d="m362.75134 221.27817c11.068085 -13.692627 29.01236 -19.817673 46.14261 -15.750153c17.130249 4.067505 30.40564 17.60556 34.13678 34.812195l-8.81308 1.9110565c-2.995575 -13.814529 -13.653839 -24.683685 -27.407013 -27.949326c-13.753204 -3.2656403 -28.159973 1.6519165 -37.04605 12.645172z" fill-rule="evenodd"/><path stroke="#f1c232" stroke-width="1.952755905511811" stroke-linejoin="round" stroke-linecap="butt" d="m362.75134 221.27817c11.068085 -13.692627 29.01236 -19.817673 46.14261 -15.750153c17.130249 4.067505 30.40564 17.60556 34.13678 34.812195l-8.81308 1.9110565c-2.995575 -13.814529 -13.653839 -24.683685 -27.407013 -27.949326c-13.753204 -3.2656403 -28.159973 1.6519165 -37.04605 12.645172z" fill-rule="evenodd"/><path fill="#ffd966" d="m363.4475 188.00755c4.5520935 -17.002136 18.45819 -29.88266 35.758606 -33.12143c17.300415 -3.2387695 34.924164 3.7391357 45.318268 17.943237l-7.275177 5.323761c-8.345032 -11.4039 -22.494415 -17.00618 -36.384216 -14.405914c-13.889832 2.6002808 -25.054474 12.941544 -28.709167 26.591873z" fill-rule="evenodd"/><path stroke="#f1c232" stroke-width="1.952755905511811" stroke-linejoin="round" stroke-linecap="butt" d="m363.4475 188.00755c4.5520935 -17.002136 18.45819 -29.88266 35.758606 -33.12143c17.300415 -3.2387695 34.924164 3.7391357 45.318268 17.943237l-7.275177 5.323761c-8.345032 -11.4039 -22.494415 -17.00618 -36.384216 -14.405914c-13.889832 2.6002808 -25.054474 12.941544 -28.709167 26.591873z" fill-rule="evenodd"/><path fill="#ffd966" d="m433.76105 187.42758l15.001984 9.1552734E-5l4.6357727 -14.280167l4.6357727 14.280167l15.001984 -9.1552734E-5l-12.136932 8.825531l4.635956 14.280121l-12.13678 -8.825699l-12.13681 8.825699l4.635956 -14.280121z" fill-rule="evenodd"/><path stroke="#f1c232" stroke-width="1.952755905511811" stroke-linejoin="round" stroke-linecap="butt" d="m433.76105 187.42758l15.001984 9.1552734E-5l4.6357727 -14.280167l4.6357727 14.280167l15.001984 -9.1552734E-5l-12.136932 8.825531l4.635956 14.280121l-12.13678 -8.825699l-12.13681 8.825699l4.635956 -14.280121z" fill-rule="evenodd"/><path fill="#ffffff" d="m104.58208 206.65393c10.307899 -23.235123 36.27597 -47.809387 65.63934 -62.116196l0.8022766 20.507996c-17.176285 10.125717 -33.184402 23.6604 -43.170753 36.500366z" fill-rule="evenodd"/><path fill="#f4cccc" d="m324.55997 355.96216c-12.401611 22.1904 -40.520966 44.27246 -71.07526 55.815186l1.0908508 -20.496704c18.03482 -8.50177 35.22043 -20.506805 46.345093 -32.37442z" fill-rule="evenodd"/></g></svg>